<svg width="80" height="121" viewBox="0 0 80 121" fill="none" xmlns="http://www.w3.org/2000/svg">
<path d="M27 108.5C27 114.299 22.299 119 16.5 119C10.701 119 6 114.299 6 108.5C6 102.701 10.701 98 16.5 98C22.299 98 27 102.701 27 108.5Z" fill="black"/>
<rect x="7" y="69" width="20" height="25" fill="black"/>
<rect x="7" y="91" width="33" height="3" fill="black"/>
<path d="M54.6875 26C54.6875 27.5417 54.4583 28.9167 54 30.125C53.5417 31.375 52.7083 32.5208 51.5 33.5625C50.2917 34.6042 48.5833 35.6458 46.375 36.6875C44.1667 37.7708 41.2708 38.875 37.6875 40C33.6042 41.3333 29.7083 42.8333 26 44.5C22.3333 46.2083 19.0625 48.1875 16.1875 50.4375C13.3125 52.6875 11.0417 55.3125 9.375 58.3125C7.75 61.3125 6.9375 64.8125 6.9375 68.8125C6.9375 72.6875 7.79167 76.1875 9.5 79.3125C11.2083 82.4375 13.6042 85.1042 16.6875 87.3125C19.7708 89.5625 23.3958 91.2708 27.5625 92.4375C31.7292 93.6458 36.3125 94.25 41.3125 94.25C47.9792 94.25 53.8333 93.0625 58.875 90.6875C63.9583 88.3542 67.9167 85.0625 70.75 80.8125C73.5833 76.6042 75 71.7083 75 66.125H54.75C54.75 68.5833 54.2292 70.75 53.1875 72.625C52.1875 74.5417 50.6458 76.0417 48.5625 77.125C46.5208 78.2083 43.9583 78.75 40.875 78.75C37.875 78.75 35.3542 78.2917 33.3125 77.375C31.3125 76.5 29.7917 75.2917 28.75 73.75C27.75 72.2083 27.25 70.5208 27.25 68.6875C27.25 67.2292 27.625 65.8958 28.375 64.6875C29.1667 63.5208 30.2917 62.4167 31.75 61.375C33.25 60.375 35.0833 59.4167 37.25 58.5C39.4167 57.5833 41.8958 56.7083 44.6875 55.875C49.5625 54.3333 53.875 52.625 57.625 50.75C61.4167 48.875 64.6042 46.75 67.1875 44.375C69.7708 42 71.7083 39.3125 73 36.3125C74.3333 33.3125 75 29.9167 75 26.125C75 22.0833 74.2083 18.5 72.625 15.375C71.0833 12.25 68.8333 9.58333 65.875 7.375C62.9583 5.20833 59.4583 3.5625 55.375 2.4375C51.2917 1.3125 46.7292 0.75 41.6875 0.75C37.1042 0.75 32.5833 1.33333 28.125 2.5C23.6667 3.70833 19.625 5.54167 16 8C12.4167 10.4583 9.54167 13.5833 7.375 17.375C5.25 21.2083 4.1875 25.75 4.1875 31H24.5625C24.5625 28.25 24.9583 25.9167 25.75 24C26.5417 22.125 27.6667 20.6042 29.125 19.4375C30.625 18.2708 32.4375 17.4375 34.5625 16.9375C36.6875 16.4375 39.0625 16.1875 41.6875 16.1875C44.7292 16.1875 47.1875 16.6042 49.0625 17.4375C50.9792 18.3125 52.3958 19.5 53.3125 21C54.2292 22.5 54.6875 24.1667 54.6875 26Z" fill="black"/>
</svg>
